<?xml version="1.0" encoding="utf-8"?>
<!-- Generator: Adobe Illustrator 16.0.4, SVG Export Plug-In . SVG Version: 6.00 Build 0)  -->
<!DOCTYPE svg PUBLIC "-//W3C//DTD SVG 1.1//EN" "http://www.w3.org/Graphics/SVG/1.1/DTD/svg11.dtd">
<svg version="1.1" id="Layer_1" xmlns="http://www.w3.org/2000/svg" xmlns:xlink="http://www.w3.org/1999/xlink" x="0px" y="0px"
	 width="252px" height="144px" viewBox="0 0 252 144" enable-background="new 0 0 252 144" xml:space="preserve">
<rect x="-709.4" y="-27" fill-rule="evenodd" clip-rule="evenodd" fill="#2A2760" width="306" height="198"/>
<g>
	<rect x="-646.161" y="61.485" fill="none" width="180.992" height="17.131"/>
	<text transform="matrix(1 0 0 1 -641.0195 71.7544)" fill="#FFFFFF" font-family="'GothamNarrow-Medium'" font-size="14.2236">BROOKE DONALD WAHL</text>
	<rect x="-645.654" y="81.124" fill="none" width="180.987" height="9.658"/>
	
		<text transform="matrix(1 0 0 1 -587.8311 88.6367)" fill="#FFFFFF" font-family="'GillSansStd-BoldCondensed'" font-size="11" letter-spacing="2">R</text>
	
		<text transform="matrix(0.7 0 0 0.7 -579.5586 88.6367)" fill="#FFFFFF" font-family="'GillSansStd-BoldCondensed'" font-size="11" letter-spacing="1.429">ealty</text>
	
		<text transform="matrix(1 0 0 1 -552.1318 88.6367)" fill="#FFFFFF" font-family="'GillSansStd-BoldCondensed'" font-size="11" letter-spacing="2">S</text>
	
		<text transform="matrix(0.7 0 0 0.7 -545.0039 88.6367)" fill="#FFFFFF" font-family="'GillSansStd-BoldCondensed'" font-size="11" letter-spacing="1.429">outh</text>
	
		<rect x="-645.654" y="47.535" fill-rule="evenodd" clip-rule="evenodd" fill="none" stroke="#FFFFFF" stroke-width="1.5648" stroke-miterlimit="10" width="180.99" height="53.333"/>
</g>
<rect x="-293.422" y="31.299" fill="none" width="190.752" height="18.056"/>
<text transform="matrix(1 0 0 1 -286.9766 41.9976)" fill="#2A2760" font-family="'GothamNarrow-Medium'" font-size="14.8193">BROOKE DONALD WAHL</text>
<line fill="none" stroke="#2A2760" stroke-width="0.9982" stroke-miterlimit="10" x1="-295.222" y1="71.135" x2="-103.248" y2="71.135"/>
<rect x="-324.555" y="55.073" fill="none" width="250.09" height="10.179"/>
<text transform="matrix(1 0 0 1 -282.0713 60.9121)" fill="#2A2760" font-family="'GillSansStd-BoldCondensed'" font-size="8.5494">Real Estate Agent + Lifestyle Specialist</text>
<rect x="-294.393" y="83.99" fill="none" width="189.768" height="37.96"/>
<text transform="matrix(1 0 0 1 -230.0059 89.4355)"><tspan x="0" y="0" fill="#2A2760" font-family="'GillSansStd'" font-size="7.9853" letter-spacing="1">205.447.1704</tspan><tspan x="-40.664" y="11.978" fill="#2A2760" font-family="'GillSansStd'" font-size="7.9853" letter-spacing="1">bwahl@realtysouth.com</tspan><tspan x="-32.915" y="23.956" fill="#2A2760" font-family="'GillSansStd'" font-size="7.9853" letter-spacing="1">www.thedailyrec.com</tspan></text>
<rect x="-27" y="-27" fill-rule="evenodd" clip-rule="evenodd" fill="#2A2760" width="306" height="197.868"/>
<g>
	<rect x="32.479" y="61.044" fill="none" width="188.572" height="17.85"/>
	<text transform="matrix(1 0 0 1 74.2539 71.7437)" fill="#FFFFFF" font-family="'GothamNarrow-Medium'" font-size="14.8193">KEKE DONALD</text>
	<rect x="33.009" y="81.505" fill="none" width="188.566" height="10.062"/>
	
		<text transform="matrix(1 0 0 1 94.6211 89.0181)" fill="#FFFFFF" font-family="'GillSansStd-BoldCondensed'" font-size="11" letter-spacing="2">R</text>
	
		<text transform="matrix(0.7 0 0 0.7 102.8936 89.0181)" fill="#FFFFFF" font-family="'GillSansStd-BoldCondensed'" font-size="11" letter-spacing="1.429">ealty</text>
	
		<text transform="matrix(1 0 0 1 130.3203 89.0181)" fill="#FFFFFF" font-family="'GillSansStd-BoldCondensed'" font-size="11" letter-spacing="2">S</text>
	
		<text transform="matrix(0.7 0 0 0.7 137.4482 89.0181)" fill="#FFFFFF" font-family="'GillSansStd-BoldCondensed'" font-size="11" letter-spacing="1.429">outh</text>
	
		<rect x="33.008" y="46.511" fill-rule="evenodd" clip-rule="evenodd" fill="none" stroke="#FFFFFF" stroke-width="1.6304" stroke-miterlimit="10" width="188.571" height="55.566"/>
</g>
<rect x="-647.849" y="279.699" fill="none" width="190.752" height="18.056"/>
<text transform="matrix(1 0 0 1 -604.9854 290.3984)" fill="#2A2760" font-family="'GothamNarrow-Medium'" font-size="14.8193">KEKE DONALD</text>
<line fill="none" stroke="#2A2760" stroke-width="0.9982" stroke-miterlimit="10" x1="-649.648" y1="319.535" x2="-457.675" y2="319.535"/>
<rect x="-678.981" y="303.474" fill="none" width="250.09" height="10.179"/>
<text transform="matrix(1 0 0 1 -636.498 309.3125)" fill="#2A2760" font-family="'GillSansStd-BoldCondensed'" font-size="8.5494">Real Estate Agent + Lifestyle Specialist</text>
<rect x="-648.819" y="332.391" fill="none" width="189.768" height="37.96"/>
<text transform="matrix(1 0 0 1 -584.4326 337.8359)"><tspan x="0" y="0" fill="#2A2760" font-family="'GillSansStd'" font-size="7.9853" letter-spacing="1">205.447.1694</tspan><tspan x="-47.955" y="11.979" fill="#2A2760" font-family="'GillSansStd'" font-size="7.9853" letter-spacing="1">kdonald@realtysouth.com</tspan><tspan x="-32.915" y="23.956" fill="#2A2760" font-family="'GillSansStd'" font-size="7.9853" letter-spacing="1">www.thedailyrec.com</tspan></text>
</svg>
